<svg xmlns="http://www.w3.org/2000/svg" xmlns:xlink="http://www.w3.org/1999/xlink" width="32" height="32" id="money"><defs><linearGradient id="a"><stop offset="0" stop-color="#000092"></stop><stop offset="1" stop-color="#ff00f3"></stop></linearGradient><linearGradient id="b" x1="3.042" x2="26.146" y1="16.006" y2="16.006" gradientUnits="userSpaceOnUse" xlink:href="#a"></linearGradient></defs><path fill="url(#b)" d="M8.258 2a.5.5 0 0 0-.492.508v.35c-.692.206-1.248.731-1.248 1.476 0 .908.766 1.62 1.675 1.656a.501.501 0 0 0 .043.006l.03.002c.44 0 .746.308.746.666 0 .354-.301.656-.735.662a.5.5 0 0 0-.02 0h-.001c-.435-.005-.738-.307-.738-.662.01-.676-1.01-.676-1 0 0 .76.539 1.38 1.248 1.586v.244c-.01.676 1.01.676 1 0v-.357c.691-.206 1.246-.729 1.246-1.473 0-.799-.633-1.357-1.395-1.527h-.002c-.284-.143-.004-.01-.232-.123a.497.497 0 0 0-.033-.008l-.016-.002A.5.5 0 0 0 8.266 5v-.002A.497.497 0 0 0 8.238 5c-.424-.013-.72-.31-.72-.66 0-.358.307-.666.748-.666.44 0 .746.308.746.666-.01.676 1.01.676 1 0 0-.76-.538-1.382-1.246-1.588v-.244A.5.5 0 0 0 8.258 2Zm12.199.03a.5.5 0 0 0-.492.507v.25c-.553.202-.988.643-.988 1.26 0 .79.648 1.428 1.431 1.459.02 0 .038.006.057.006.285 0 .488.205.488.465 0 .255-.198.456-.478.46a.5.5 0 0 0-.018 0h-.002c-.28-.004-.478-.205-.478-.46.01-.677-1.01-.677-1 0 0 .616.436 1.055.988 1.257v.256c-.01.676 1.01.676 1 0v-.256c.552-.202.988-.64.988-1.257 0-.668-.505-1.14-1.121-1.315a.5.5 0 0 0-.174-.115l-.008-.004a.5.5 0 0 0-.088-.023l-.039.001c-.013-.002.004-.008-.01-.01a.5.5 0 0 0-.048 0c-.286 0-.488-.205-.488-.464 0-.251.191-.447.462-.46a.5.5 0 0 0 .053.003c.27.013.461.207.461.457-.01.676 1.01.676 1 0 0-.617-.436-1.058-.988-1.26v-.25a.5.5 0 0 0-.508-.508zm-5.672 2.99a4.004 4.004 0 0 0-3.688 4.871 3.996 3.996 0 0 0 3.698 3.103l1.125 4.227-1.961-1.14a1.596 1.596 0 0 0-2.178.583 1.606 1.606 0 0 0 .58 2.18l.03.017.03.014c1.129.466 1.985 1.444 3.013 2.494.963.984 2.14 1.978 3.81 2.52l.463 1.736-.56.148c-.278.074-.52.38-.428.721l.824 3.088c.09.34.451.486.728.412l7.282-1.935c.277-.074.52-.378.43-.72l-.825-3.087c-.09-.342-.453-.486-.73-.412l-.131.035-.258-.97c-.137-.515-.021-1.16.14-1.848.163-.689.385-1.41.208-2.15l-.002-.01-1.362-5.114a1.6 1.6 0 0 0-1.947-1.13c-.307.081-.504.318-.703.54-.38-.499-.948-.834-1.588-.664-.303.081-.519.288-.715.504-.385-.464-.93-.773-1.547-.61h-.002c-.205.056-.333.22-.494.343l-.236-.887.002-.002a3.997 3.997 0 0 0-3.008-6.857zm.057.996a2.994 2.994 0 0 1 2.652 1.332 2.99 2.99 0 0 1-.017 3.35l-.329-1.23a1.603 1.603 0 0 0-1.947-1.134v.006a1.6 1.6 0 0 0-1.127 1.947l.45 1.684a2.996 2.996 0 0 1-.705-5.715c.332-.143.679-.222 1.023-.24ZM3.982 9.014a.5.5 0 0 0-.41.756l.272.468c-.73.665-1.06 1.664-.569 2.516.528.913 1.656 1.083 2.666.715a.5.5 0 0 0 .059.004c.017 0 .233-.062.25-.063.074-.006-.054.035.01-.002.653-.283 1.32-.19 1.597.291.278.48.08 1.16-.54 1.528a.533.533 0 0 0-.026.015c-.629.355-1.318.186-1.596-.295-.323-.614-1.236-.086-.865.5.492.852 1.52 1.064 2.461.764l.273.475c.334.578 1.201.078.868-.5l-.223-.385c.745-.669 1.014-1.738.516-2.602a1.957 1.957 0 0 0-1.315-.931v-.002c-.425-.09-.875.05-1.306.216l-.354.059-.006.004c-.63.36-1.323.191-1.601-.291-.27-.466-.084-1.114.494-1.488a.5.5 0 0 0 .13-.077c.613-.312 1.269-.15 1.538.317.323.614 1.236.086.865-.5a1.953 1.953 0 0 0-1.313-.932 2.34 2.34 0 0 0-1.2.074l-.22-.378a.5.5 0 0 0-.455-.256Zm11.713.277c.229.031.421.196.487.441l1.177 4.42.983-.158a.574.574 0 0 1 .44-.6.58.58 0 0 1 .722.424l.123.463.982-.158a.603.603 0 0 1 .434-.621.582.582 0 0 1 .725.424l.181.681.967-.257a.582.582 0 0 1 .418-.729.582.582 0 0 1 .725.424l1.355 5.098c.088.371-.042.982-.207 1.685-.166.705-.354 1.51-.135 2.334l.256.96c-1.548.412-2.836.75-4.658 1.237l-.59-2.22-.277-.075c-1.615-.438-2.657-1.377-3.655-2.396-.984-1.006-1.91-2.105-3.289-2.693a.592.592 0 0 1-.213-.813h.002a.576.576 0 0 1 .807-.217l4.053 2.36-2.469-9.274a.58.58 0 0 1 .42-.726v.002a.609.609 0 0 1 .236-.016zM26.3 24.908l.61 2.287-6.507 1.729-.609-2.287z" color="#000" font-family="sans-serif" font-weight="400" overflow="visible" style="line-height:normal;text-indent:0;text-align:start;text-decoration-line:none;text-decoration-style:solid;text-decoration-color:#000;text-transform:none;block-progression:tb;isolation:auto;mix-blend-mode:normal"></path></svg>